<?xml version="1.0" encoding="UTF-8"?>
<!--Generator: Apple Native CoreSVG 175-->
<!DOCTYPE svg
PUBLIC "-//W3C//DTD SVG 1.1//EN"
       "http://www.w3.org/Graphics/SVG/1.1/DTD/svg11.dtd">
<svg version="1.1" xmlns="http://www.w3.org/2000/svg" xmlns:xlink="http://www.w3.org/1999/xlink" width="3300" height="2200">
 <!--glyph: "uni1005AC.medium", point size: 100.0, font version: "17.3d3e1", template writer version: "65.1"-->
 <g id="Notes">
  <rect height="2200" id="artboard" style="fill:white;opacity:1" width="3300" x="0" y="0"/>
  <line style="fill:none;stroke:black;opacity:1;stroke-width:0.5;" x1="263" x2="3036" y1="292" y2="292"/>
  <text style="stroke:none;fill:black;font-family:sans-serif;font-size:13;font-weight:bold;" transform="matrix(1 0 0 1 263 322)">Weight/Scale Variations</text>
  <text style="stroke:none;fill:black;font-family:sans-serif;font-size:13;text-anchor:middle;" transform="matrix(1 0 0 1 559.711 322)">Ultralight</text>
  <text style="stroke:none;fill:black;font-family:sans-serif;font-size:13;text-anchor:middle;" transform="matrix(1 0 0 1 856.422 322)">Thin</text>
  <text style="stroke:none;fill:black;font-family:sans-serif;font-size:13;text-anchor:middle;" transform="matrix(1 0 0 1 1153.13 322)">Light</text>
  <text style="stroke:none;fill:black;font-family:sans-serif;font-size:13;text-anchor:middle;" transform="matrix(1 0 0 1 1449.84 322)">Regular</text>
  <text style="stroke:none;fill:black;font-family:sans-serif;font-size:13;text-anchor:middle;" transform="matrix(1 0 0 1 1746.56 322)">Medium</text>
  <text style="stroke:none;fill:black;font-family:sans-serif;font-size:13;text-anchor:middle;" transform="matrix(1 0 0 1 2043.27 322)">Semibold</text>
  <text style="stroke:none;fill:black;font-family:sans-serif;font-size:13;text-anchor:middle;" transform="matrix(1 0 0 1 2339.98 322)">Bold</text>
  <text style="stroke:none;fill:black;font-family:sans-serif;font-size:13;text-anchor:middle;" transform="matrix(1 0 0 1 2636.69 322)">Heavy</text>
  <text style="stroke:none;fill:black;font-family:sans-serif;font-size:13;text-anchor:middle;" transform="matrix(1 0 0 1 2933.4 322)">Black</text>
  <line style="fill:none;stroke:black;opacity:1;stroke-width:0.5;" x1="263" x2="3036" y1="1903" y2="1903"/>
  <g transform="matrix(1 0 0 1 263 1933)">
   <path d="M9.24805 0.830078Q10.8691 0.830078 12.2949 0.214844Q13.7207-0.400391 14.8096-1.49414Q15.8984-2.58789 16.5186-4.01367Q17.1387-5.43945 17.1387-7.05078Q17.1387-8.66211 16.5186-10.0879Q15.8984-11.5137 14.8047-12.6074Q13.7109-13.7012 12.2852-14.3164Q10.8594-14.9316 9.23828-14.9316Q7.62695-14.9316 6.20117-14.3164Q4.77539-13.7012 3.69141-12.6074Q2.60742-11.5137 1.9873-10.0879Q1.36719-8.66211 1.36719-7.05078Q1.36719-5.43945 1.9873-4.01367Q2.60742-2.58789 3.69629-1.49414Q4.78516-0.400391 6.21094 0.214844Q7.63672 0.830078 9.24805 0.830078ZM9.24805-0.654297Q7.91992-0.654297 6.7627-1.14746Q5.60547-1.64062 4.73145-2.51953Q3.85742-3.39844 3.36426-4.56055Q2.87109-5.72266 2.87109-7.05078Q2.87109-8.37891 3.35938-9.54102Q3.84766-10.7031 4.72168-11.582Q5.5957-12.4609 6.75293-12.9541Q7.91016-13.4473 9.23828-13.4473Q10.5762-13.4473 11.7334-12.9541Q12.8906-12.4609 13.7695-11.582Q14.6484-10.7031 15.1465-9.54102Q15.6445-8.37891 15.6445-7.05078Q15.6445-5.72266 15.1514-4.56055Q14.6582-3.39844 13.7842-2.51953Q12.9102-1.64062 11.748-1.14746Q10.5859-0.654297 9.24805-0.654297ZM5.6543-7.05078Q5.6543-6.72852 5.85938-6.52832Q6.06445-6.32812 6.40625-6.32812L8.51562-6.32812L8.51562-4.20898Q8.51562-3.88672 8.71094-3.67676Q8.90625-3.4668 9.23828-3.4668Q9.56055-3.4668 9.77051-3.67676Q9.98047-3.88672 9.98047-4.20898L9.98047-6.32812L12.0898-6.32812Q12.4219-6.32812 12.627-6.52832Q12.832-6.72852 12.832-7.05078Q12.832-7.38281 12.627-7.58789Q12.4219-7.79297 12.0898-7.79297L9.98047-7.79297L9.98047-9.90234Q9.98047-10.2344 9.77051-10.4443Q9.56055-10.6543 9.23828-10.6543Q8.90625-10.6543 8.71094-10.4443Q8.51562-10.2344 8.51562-9.90234L8.51562-7.79297L6.40625-7.79297Q6.06445-7.79297 5.85938-7.58789Q5.6543-7.38281 5.6543-7.05078Z"/>
  </g>
  <g transform="matrix(1 0 0 1 281.867 1933)">
   <path d="M11.709 2.91016Q13.75 2.91016 15.5518 2.12891Q17.3535 1.34766 18.7305-0.0292969Q20.1074-1.40625 20.8887-3.20801Q21.6699-5.00977 21.6699-7.05078Q21.6699-9.0918 20.8887-10.8936Q20.1074-12.6953 18.7305-14.0723Q17.3535-15.4492 15.5469-16.2305Q13.7402-17.0117 11.6992-17.0117Q9.6582-17.0117 7.85645-16.2305Q6.05469-15.4492 4.68262-14.0723Q3.31055-12.6953 2.5293-10.8936Q1.74805-9.0918 1.74805-7.05078Q1.74805-5.00977 2.5293-3.20801Q3.31055-1.40625 4.6875-0.0292969Q6.06445 1.34766 7.86621 2.12891Q9.66797 2.91016 11.709 2.91016ZM11.709 1.25Q9.98047 1.25 8.47656 0.605469Q6.97266-0.0390625 5.83496-1.17676Q4.69727-2.31445 4.05762-3.81836Q3.41797-5.32227 3.41797-7.05078Q3.41797-8.7793 4.05762-10.2832Q4.69727-11.7871 5.83008-12.9297Q6.96289-14.0723 8.4668-14.7119Q9.9707-15.3516 11.6992-15.3516Q13.4277-15.3516 14.9316-14.7119Q16.4355-14.0723 17.5781-12.9297Q18.7207-11.7871 19.3652-10.2832Q20.0098-8.7793 20.0098-7.05078Q20.0098-5.32227 19.3701-3.81836Q18.7305-2.31445 17.5928-1.17676Q16.4551-0.0390625 14.9463 0.605469Q13.4375 1.25 11.709 1.25ZM7.17773-7.05078Q7.17773-6.69922 7.41211-6.47461Q7.64648-6.25 8.01758-6.25L10.8887-6.25L10.8887-3.36914Q10.8887-2.99805 11.1133-2.76855Q11.3379-2.53906 11.6895-2.53906Q12.0605-2.53906 12.29-2.76855Q12.5195-2.99805 12.5195-3.36914L12.5195-6.25L15.4004-6.25Q15.7715-6.25 16.001-6.47461Q16.2305-6.69922 16.2305-7.05078Q16.2305-7.42188 16.001-7.65137Q15.7715-7.88086 15.4004-7.88086L12.5195-7.88086L12.5195-10.752Q12.5195-11.1328 12.29-11.3623Q12.0605-11.5918 11.6895-11.5918Q11.3379-11.5918 11.1133-11.3574Q10.8887-11.123 10.8887-10.752L10.8887-7.88086L8.01758-7.88086Q7.63672-7.88086 7.40723-7.65137Q7.17773-7.42188 7.17773-7.05078Z"/>
  </g>
  <g transform="matrix(1 0 0 1 305.646 1933)">
   <path d="M14.9707 5.66406Q17.0605 5.66406 18.96 5.01465Q20.8594 4.36523 22.4512 3.19336Q24.043 2.02148 25.2197 0.429688Q26.3965-1.16211 27.0459-3.06641Q27.6953-4.9707 27.6953-7.05078Q27.6953-9.14062 27.0459-11.04Q26.3965-12.9395 25.2197-14.5312Q24.043-16.123 22.4512-17.2998Q20.8594-18.4766 18.9551-19.126Q17.0508-19.7754 14.9609-19.7754Q12.8711-19.7754 10.9717-19.126Q9.07227-18.4766 7.48535-17.2998Q5.89844-16.123 4.72168-14.5312Q3.54492-12.9395 2.90039-11.04Q2.25586-9.14062 2.25586-7.05078Q2.25586-4.9707 2.90527-3.06641Q3.55469-1.16211 4.72656 0.429688Q5.89844 2.02148 7.49023 3.19336Q9.08203 4.36523 10.9814 5.01465Q12.8809 5.66406 14.9707 5.66406ZM14.9707 3.84766Q13.1641 3.84766 11.5283 3.2959Q9.89258 2.74414 8.53516 1.74805Q7.17773 0.751953 6.17676-0.610352Q5.17578-1.97266 4.62891-3.6084Q4.08203-5.24414 4.08203-7.05078Q4.08203-8.86719 4.62891-10.5029Q5.17578-12.1387 6.17188-13.501Q7.16797-14.8633 8.52539-15.8594Q9.88281-16.8555 11.5186-17.4023Q13.1543-17.9492 14.9609-17.9492Q16.7773-17.9492 18.4131-17.4023Q20.0488-16.8555 21.4111-15.8594Q22.7734-14.8633 23.7695-13.501Q24.7656-12.1387 25.3174-10.5029Q25.8691-8.86719 25.8691-7.05078Q25.8789-5.24414 25.332-3.6084Q24.7852-1.97266 23.7842-0.610352Q22.7832 0.751953 21.4209 1.74805Q20.0586 2.74414 18.4229 3.2959Q16.7871 3.84766 14.9707 3.84766ZM9.19922-7.05078Q9.19922-6.66992 9.45801-6.4209Q9.7168-6.17188 10.1172-6.17188L14.0625-6.17188L14.0625-2.2168Q14.0625-1.81641 14.3115-1.55762Q14.5605-1.29883 14.9512-1.29883Q15.3516-1.29883 15.6104-1.55273Q15.8691-1.80664 15.8691-2.2168L15.8691-6.17188L19.8242-6.17188Q20.2246-6.17188 20.4785-6.4209Q20.7324-6.66992 20.7324-7.05078Q20.7324-7.46094 20.4785-7.71484Q20.2246-7.96875 19.8242-7.96875L15.8691-7.96875L15.8691-11.9141Q15.8691-12.3242 15.6104-12.583Q15.3516-12.8418 14.9512-12.8418Q14.5605-12.8418 14.3115-12.583Q14.0625-12.3242 14.0625-11.9141L14.0625-7.96875L10.1172-7.96875Q9.70703-7.96875 9.45312-7.71484Q9.19922-7.46094 9.19922-7.05078Z"/>
  </g>
  <text style="stroke:none;fill:black;font-family:sans-serif;font-size:13;font-weight:bold;" transform="matrix(1 0 0 1 263 1953)">Design Variations</text>
  <text style="stroke:none;fill:black;font-family:sans-serif;font-size:13;" transform="matrix(1 0 0 1 263 1971)">Symbols are supported in up to nine weights and three scales.</text>
  <text style="stroke:none;fill:black;font-family:sans-serif;font-size:13;" transform="matrix(1 0 0 1 263 1989)">For optimal layout with text and other symbols, vertically align</text>
  <text style="stroke:none;fill:black;font-family:sans-serif;font-size:13;" transform="matrix(1 0 0 1 263 2007)">symbols with the adjacent text.</text>
  <line style="fill:none;stroke:#00AEEF;stroke-width:0.5;opacity:1.0;" x1="776" x2="776" y1="1919" y2="1933"/>
  <g transform="matrix(1 0 0 1 776 1933)">
   <path d="M3.31055 0.15625Q3.70117 0.15625 3.91602-0.00976562Q4.13086-0.175781 4.26758-0.585938L5.52734-4.0332L11.2891-4.0332L12.5488-0.585938Q12.6855-0.175781 12.9004-0.00976562Q13.1152 0.15625 13.4961 0.15625Q13.8867 0.15625 14.1162-0.0585938Q14.3457-0.273438 14.3457-0.644531Q14.3457-0.869141 14.2383-1.17188L9.6582-13.3691Q9.48242-13.8184 9.17969-14.043Q8.87695-14.2676 8.4082-14.2676Q7.5-14.2676 7.17773-13.3789L2.59766-1.16211Q2.49023-0.859375 2.49023-0.634766Q2.49023-0.263672 2.70996-0.0537109Q2.92969 0.15625 3.31055 0.15625ZM6.00586-5.51758L8.37891-12.0898L8.42773-12.0898L10.8008-5.51758Z"/>
  </g>
  <line style="fill:none;stroke:#00AEEF;stroke-width:0.5;opacity:1.0;" x1="793.197" x2="793.197" y1="1919" y2="1933"/>
  <text style="stroke:none;fill:black;font-family:sans-serif;font-size:13;font-weight:bold;" transform="matrix(1 0 0 1 776 1953)">Margins</text>
  <text style="stroke:none;fill:black;font-family:sans-serif;font-size:13;" transform="matrix(1 0 0 1 776 1971)">Leading and trailing margins on the left and right side of each symbol</text>
  <text style="stroke:none;fill:black;font-family:sans-serif;font-size:13;" transform="matrix(1 0 0 1 776 1989)">can be adjusted by modifying the x-location of the margin guidelines.</text>
  <text style="stroke:none;fill:black;font-family:sans-serif;font-size:13;" transform="matrix(1 0 0 1 776 2007)">Modifications are automatically applied proportionally to all</text>
  <text style="stroke:none;fill:black;font-family:sans-serif;font-size:13;" transform="matrix(1 0 0 1 776 2025)">scales and weights.</text>
  <g transform="matrix(1 0 0 1 1289 1933)">
   <path d="M2.8418 1.86523L4.54102 3.57422Q5.18555 4.22852 5.90332 4.17969Q6.62109 4.13086 7.31445 3.35938L18.0078-8.42773L17.041-9.4043L6.42578 2.27539Q6.16211 2.57812 5.89355 2.61719Q5.625 2.65625 5.27344 2.30469L4.10156 1.14258Q3.75 0.791016 3.79395 0.522461Q3.83789 0.253906 4.14062-0.0195312L15.6152-10.8203L14.6387-11.7871L3.04688-0.898438Q2.30469-0.214844 2.25098 0.498047Q2.19727 1.21094 2.8418 1.86523ZM9.25781-16.3281Q8.94531-16.0254 8.90625-15.6348Q8.86719-15.2441 9.04297-14.9512Q9.21875-14.6777 9.55566-14.541Q9.89258-14.4043 10.3809-14.5215Q11.4746-14.7754 12.5977-14.7314Q13.7207-14.6875 14.7949-13.9844L14.209-12.5293Q13.9551-11.9043 14.0674-11.4404Q14.1797-10.9766 14.5801-10.5664L16.875-8.25195Q17.2363-7.88086 17.5781-7.82227Q17.9199-7.76367 18.3398-7.8418L19.4043-8.03711L20.0684-7.36328L20.0293-6.80664Q20-6.43555 20.1221-6.12305Q20.2441-5.81055 20.6055-5.44922L21.3672-4.70703Q21.7285-4.3457 22.1533-4.33105Q22.5781-4.31641 22.9297-4.66797L25.8398-7.58789Q26.1914-7.93945 26.1816-8.35449Q26.1719-8.76953 25.8105-9.13086L25.0391-9.89258Q24.6875-10.2539 24.3799-10.3857Q24.0723-10.5176 23.7109-10.4883L23.1348-10.4395L22.4902-11.0742L22.7344-12.1973Q22.832-12.6172 22.6953-12.9834Q22.5586-13.3496 22.1191-13.7891L19.9219-15.9766Q18.6719-17.2168 17.2607-17.8369Q15.8496-18.457 14.4189-18.4814Q12.9883-18.5059 11.665-17.959Q10.3418-17.4121 9.25781-16.3281ZM10.752-15.957Q11.6602-16.6211 12.7002-16.9043Q13.7402-17.1875 14.8047-17.085Q15.8691-16.9824 16.8701-16.5137Q17.8711-16.0449 18.7012-15.2051L21.1328-12.793Q21.3086-12.6172 21.3525-12.4512Q21.3965-12.2852 21.3379-12.0312L21.0156-10.5469L22.5195-9.0625L23.5059-9.12109Q23.6914-9.13086 23.7891-9.09668Q23.8867-9.0625 24.0332-8.91602L24.6094-8.33984L22.168-5.89844L21.5918-6.47461Q21.4453-6.62109 21.4062-6.71875Q21.3672-6.81641 21.377-7.01172L21.4453-7.98828L19.9512-9.47266L18.4277-9.21875Q18.1836-9.16992 18.042-9.2041Q17.9004-9.23828 17.7148-9.41406L15.7129-11.416Q15.5176-11.5918 15.4932-11.7529Q15.4688-11.9141 15.5859-12.1875L16.4648-14.2773Q15.293-15.3711 13.8281-15.791Q12.3633-16.2109 10.8398-15.7617Q10.7227-15.7324 10.6885-15.8057Q10.6543-15.8789 10.752-15.957Z"/>
  </g>
  <text style="stroke:none;fill:black;font-family:sans-serif;font-size:13;font-weight:bold;" transform="matrix(1 0 0 1 1289 1953)">Exporting</text>
  <text style="stroke:none;fill:black;font-family:sans-serif;font-size:13;" transform="matrix(1 0 0 1 1289 1971)">Symbols should be outlined when exporting to ensure the</text>
  <text style="stroke:none;fill:black;font-family:sans-serif;font-size:13;" transform="matrix(1 0 0 1 1289 1989)">design is preserved when submitting to Xcode.</text>
  <text id="template-version" style="stroke:none;fill:black;font-family:sans-serif;font-size:13;text-anchor:end;" transform="matrix(1 0 0 1 3036 1933)">Template v.3.0</text>
  <text style="stroke:none;fill:black;font-family:sans-serif;font-size:13;text-anchor:end;" transform="matrix(1 0 0 1 3036 1951)">Requires Xcode 13 or greater</text>
  <text id="descriptive-name" style="stroke:none;fill:black;font-family:sans-serif;font-size:13;text-anchor:end;" transform="matrix(1 0 0 1 3036 1969)">Generated from indianrupeesign.circle.fill</text>
  <text style="stroke:none;fill:black;font-family:sans-serif;font-size:13;text-anchor:end;" transform="matrix(1 0 0 1 3036 1987)">Typeset at 100 points</text>
  <text style="stroke:none;fill:black;font-family:sans-serif;font-size:13;" transform="matrix(1 0 0 1 263 726)">Small</text>
  <text style="stroke:none;fill:black;font-family:sans-serif;font-size:13;" transform="matrix(1 0 0 1 263 1156)">Medium</text>
  <text style="stroke:none;fill:black;font-family:sans-serif;font-size:13;" transform="matrix(1 0 0 1 263 1586)">Large</text>
 </g>
 <g id="Guides">
  <g id="H-reference" style="fill:#27AAE1;stroke:none;" transform="matrix(1 0 0 1 339 696)">
   <path d="M0.976562 0L3.66211 0L29.3457-67.1387L30.0293-67.1387L30.0293-70.459L28.125-70.459ZM11.6699-24.4629L46.9727-24.4629L46.2402-26.709L12.4512-26.709ZM55.127 0L57.7637 0L30.6152-70.459L29.4434-70.459L29.4434-67.1387Z"/>
  </g>
  <line id="Baseline-S" style="fill:none;stroke:#27AAE1;opacity:1;stroke-width:0.5;" x1="263" x2="3036" y1="696" y2="696"/>
  <line id="Capline-S" style="fill:none;stroke:#27AAE1;opacity:1;stroke-width:0.5;" x1="263" x2="3036" y1="625.541" y2="625.541"/>
  <g id="H-reference" style="fill:#27AAE1;stroke:none;" transform="matrix(1 0 0 1 339 1126)">
   <path d="M0.976562 0L3.66211 0L29.3457-67.1387L30.0293-67.1387L30.0293-70.459L28.125-70.459ZM11.6699-24.4629L46.9727-24.4629L46.2402-26.709L12.4512-26.709ZM55.127 0L57.7637 0L30.6152-70.459L29.4434-70.459L29.4434-67.1387Z"/>
  </g>
  <line id="Baseline-M" style="fill:none;stroke:#27AAE1;opacity:1;stroke-width:0.5;" x1="263" x2="3036" y1="1126" y2="1126"/>
  <line id="Capline-M" style="fill:none;stroke:#27AAE1;opacity:1;stroke-width:0.5;" x1="263" x2="3036" y1="1055.54" y2="1055.54"/>
  <g id="H-reference" style="fill:#27AAE1;stroke:none;" transform="matrix(1 0 0 1 339 1556)">
   <path d="M0.976562 0L3.66211 0L29.3457-67.1387L30.0293-67.1387L30.0293-70.459L28.125-70.459ZM11.6699-24.4629L46.9727-24.4629L46.2402-26.709L12.4512-26.709ZM55.127 0L57.7637 0L30.6152-70.459L29.4434-70.459L29.4434-67.1387Z"/>
  </g>
  <line id="Baseline-L" style="fill:none;stroke:#27AAE1;opacity:1;stroke-width:0.5;" x1="263" x2="3036" y1="1556" y2="1556"/>
  <line id="Capline-L" style="fill:none;stroke:#27AAE1;opacity:1;stroke-width:0.5;" x1="263" x2="3036" y1="1485.54" y2="1485.54"/>
  <line id="left-margin-Regular-M" style="fill:none;stroke:#00AEEF;stroke-width:0.5;opacity:1.0;" x1="1391.32" x2="1391.32" y1="1030.79" y2="1150.12"/>
  <line id="right-margin-Regular-M" style="fill:none;stroke:#00AEEF;stroke-width:0.5;opacity:1.0;" x1="1508.37" x2="1508.37" y1="1030.79" y2="1150.12"/>
 </g>
 <g id="Symbols">
  <g id="Black-L" transform="matrix(1 0 0 1 2854.19 1556)">
   <path d="M79.1953 32.7252Q93.2356 32.7252 105.521 27.4303Q117.806 22.1354 127.174 12.7571Q136.542 3.37874 141.848-8.90649Q147.154-21.1917 147.154-35.2113Q147.154-49.2309 141.848-61.5161Q136.542-73.8013 127.164-83.1796Q117.785-92.558 105.5-97.8529Q93.2149-103.148 79.1746-103.148Q65.1563-103.148 52.8704-97.8529Q40.5846-92.558 31.2276-83.1796Q21.8707-73.8013 16.5647-61.5161Q11.2588-49.2309 11.2588-35.2113Q11.2588-21.1917 16.5647-8.90649Q21.8707 3.37874 31.238 12.7571Q40.6053 22.1354 52.8912 27.4303Q65.177 32.7252 79.1953 32.7252ZM82.0573-3.39004Q79.1278-3.39004 75.8089-6.57139L58.9432-23.1175Q56.6815-25.3208 55.8857-26.7174Q55.0898-28.114 55.0898-30.4116Q55.0898-33.5941 57.0969-35.123Q59.104-36.6518 62.0918-36.6518L69.4632-36.6518Q73.4913-36.6518 75.7717-37.9142Q78.0521-39.1765 78.7576-41.5051L58.7934-41.5051Q57.6274-41.5051 56.8349-42.3086Q56.0425-43.1121 56.0425-44.3144Q56.0425-45.5569 56.8349-46.3202Q57.6274-47.0835 58.7934-47.0835L78.7162-47.0835Q77.9134-49.4071 75.6321-50.6959Q73.3509-51.9848 69.5196-51.9848L60.7428-51.9848Q58.2297-51.9848 56.5756-53.561Q54.9214-55.1373 54.9214-57.5115Q54.9214-59.948 56.5756-61.5042Q58.2297-63.0603 60.7428-63.0603L75.9602-63.0603Q79.1807-63.0603 81.9832-62.4179Q84.7858-61.7754 87.0133-60.4904L100.634-60.4904Q103.386-60.4904 103.386-57.7408Q103.386-56.5385 102.623-55.7253Q101.86-54.9121 100.634-54.9121L91.6287-54.9121Q92.6829-53.2571 93.2981-51.3045Q93.9134-49.3519 94.274-47.0835L100.742-47.0835Q103.473-47.0835 103.473-44.3144Q103.473-43.1121 102.72-42.3086Q101.967-41.5051 100.742-41.5051L94.1741-41.5051Q93.3116-36.3251 89.214-31.8365Q85.1163-27.348 77.2791-26.1798L76.3548-26.063L86.8609-16.0494Q88.2427-14.748 88.8875-13.3435Q89.5322-11.9391 89.5322-10.5535Q89.5322-7.4928 87.148-5.44142Q84.7638-3.39004 82.0573-3.39004Z"/>
  </g>
  <g id="Heavy-L" transform="matrix(1 0 0 1 2558.42 1556)">
   <path d="M78.2511 31.7672Q92.088 31.7672 104.202 26.5464Q116.316 21.3256 125.559 12.0677Q134.802 2.8099 140.04-9.30402Q145.279-21.4179 145.279-35.2251Q145.279-49.0322 140.04-61.1461Q134.802-73.2601 125.544-82.5179Q116.286-91.7758 104.172-96.9966Q92.0582-102.217 78.2213-102.217Q64.4202-102.217 52.3033-96.9966Q40.1863-91.7758 30.9613-82.5179Q21.7362-73.2601 16.4975-61.1461Q11.2588-49.0322 11.2588-35.2251Q11.2588-21.4179 16.4975-9.30402Q21.7362 2.8099 30.9761 12.0677Q40.2161 21.3256 52.333 26.5464Q64.45 31.7672 78.2511 31.7672ZM82.353-3.30757Q79.6744-3.30757 76.7072-6.15579L58.2384-24.0426Q56.3041-25.9322 55.5391-27.215Q54.7742-28.4978 54.7742-30.614Q54.7742-33.4948 56.6-34.9324Q58.4258-36.37 61.149-36.37L69.0265-36.37Q73.297-36.37 75.7976-37.7918Q78.2982-39.2135 79.0309-41.8934L58.3314-41.8934Q57.1255-41.8934 56.3157-42.7211Q55.5058-43.5489 55.5058-44.7636Q55.5058-46.0318 56.3157-46.8194Q57.1255-47.6069 58.3314-47.6069L78.9714-47.6069Q78.1466-50.2361 75.7231-51.7015Q73.2995-53.1668 69.3589-53.1668L59.8398-53.1668Q57.5629-53.1668 56.0434-54.6312Q54.524-56.0956 54.524-58.2474Q54.524-60.4886 56.0434-61.9262Q57.5629-63.3638 59.8398-63.3638L75.5554-63.3638Q78.3714-63.3638 80.8795-62.873Q83.3875-62.3821 85.445-61.4004L99.0274-61.4004Q101.859-61.4004 101.859-58.5808Q101.859-57.3661 101.072-56.5265Q100.284-55.6869 99.0274-55.6869L89.9065-55.6869Q91.1142-53.9948 91.8012-51.9793Q92.4882-49.9637 92.8574-47.6069L99.1944-47.6069Q101.996-47.6069 101.996-44.7636Q101.996-43.5489 101.224-42.7211Q100.451-41.8934 99.1944-41.8934L92.7532-41.8934Q91.8778-36.4834 87.5851-32.0094Q83.2923-27.5355 75.0373-26.643L73.8722-26.5538L86.5102-14.593Q87.7305-13.4532 88.3332-12.1809Q88.9359-10.9085 88.9359-9.64362Q88.9359-6.90275 86.8587-5.10516Q84.7815-3.30757 82.353-3.30757Z"/>
  </g>
  <g id="Bold-L" transform="matrix(1 0 0 1 2262.89 1556)">
   <path d="M77.0653 30.566Q90.6516 30.566 102.549 25.4396Q114.447 20.3133 123.533 11.2089Q132.619 2.10448 137.771-9.79333Q142.923-21.6912 142.923-35.2405Q142.923-48.7898 137.771-60.6877Q132.619-72.5855 123.515-81.6899Q114.41-90.7942 102.512-95.9206Q90.6146-101.047 77.0283-101.047Q63.4932-101.047 51.5882-95.9206Q39.6833-90.7942 30.623-81.6899Q21.5627-72.5855 16.4108-60.6877Q11.2588-48.7898 11.2588-35.2405Q11.2588-21.6912 16.4108-9.79333Q21.5627 2.10448 30.6415 11.2089Q39.7203 20.3133 51.6252 25.4396Q63.5301 30.566 77.0653 30.566ZM82.6292-3.39087Q80.283-3.39087 77.7552-5.82326L57.4154-25.279Q55.8704-26.7947 55.1587-27.9272Q54.447-29.0596 54.447-30.9295Q54.447-33.4152 56.0311-34.7206Q57.6153-36.026 59.9906-36.026L68.4488-36.026Q73.0537-36.026 75.8381-37.6434Q78.6225-39.2607 79.3768-42.3709L57.7686-42.3709Q56.5439-42.3709 55.7333-43.2071Q54.9228-44.0432 54.9228-45.246Q54.9228-46.5084 55.7333-47.3044Q56.5439-48.1004 57.7686-48.1004L79.3029-48.1004Q78.4738-51.1145 75.8924-52.8133Q73.3111-54.5122 69.2653-54.5122L58.7836-54.5122Q56.8054-54.5122 55.464-55.8211Q54.1226-57.1301 54.1226-58.9987Q54.1226-60.9782 55.464-62.2573Q56.8054-63.5364 58.7836-63.5364L75.0076-63.5364Q77.3682-63.5364 79.5397-63.2151Q81.7112-62.8939 83.5754-62.2514L96.9999-62.2514Q99.86-62.2514 99.86-59.4198Q99.86-58.2171 99.064-57.3695Q98.268-56.522 96.9999-56.522L87.7383-56.522Q89.1521-54.7827 89.9295-52.6794Q90.7069-50.5761 91.0741-48.1004L97.2275-48.1004Q100.051-48.1004 100.051-45.246Q100.051-44.0432 99.2731-43.2071Q98.4957-42.3709 97.2275-42.3709L90.9709-42.3709Q90.0984-36.6978 85.5903-32.2992Q81.0821-27.9007 72.3655-27.3166L70.8101-27.2582L86.0058-12.9668Q87.0309-12.0221 87.5736-10.9191Q88.1163-9.81615 88.1163-8.70928Q88.1163-6.37797 86.4099-4.88442Q84.7035-3.39087 82.6292-3.39087Z"/>
  </g>
  <g id="Semibold-L" transform="matrix(1 0 0 1 1966.99 1556)">
   <path d="M76.2478 29.7379Q89.6614 29.7379 101.41 24.6766Q113.159 19.6153 122.137 10.6168Q131.114 1.61818 136.206-10.1307Q141.299-21.8795 141.299-35.2511Q141.299-48.6228 136.206-60.3716Q131.114-72.1204 122.116-81.119Q113.117-90.1176 101.368-95.1789Q89.6194-100.24 76.2058-100.24Q62.854-100.24 51.0953-95.1789Q39.3365-90.1176 30.3898-81.119Q21.4432-72.1204 16.351-60.3716Q11.2588-48.6228 11.2588-35.2511Q11.2588-21.8795 16.351-10.1307Q21.4432 1.61818 30.4108 10.6168Q39.3785 19.6153 51.1372 24.6766Q62.896 29.7379 76.2478 29.7379ZM82.8195-3.4483Q80.7026-3.4483 78.4777-5.59403L56.848-26.1313Q55.5715-27.3893 54.8965-28.4181Q54.2214-29.447 54.2214-31.1471Q54.2214-33.3604 55.639-34.5746Q57.0566-35.7888 59.1921-35.7888L68.0505-35.7888Q72.8859-35.7888 75.866-37.5411Q78.8461-39.2933 79.6153-42.7001L57.3807-42.7001Q56.143-42.7001 55.3319-43.5421Q54.5208-44.3841 54.5208-45.5785Q54.5208-46.837 55.3319-47.6387Q56.143-48.4405 57.3807-48.4405L79.5314-48.4405Q78.6993-51.7201 76.0092-53.5799Q73.319-55.4396 69.2009-55.4396L58.0554-55.4396Q56.2832-55.4396 55.0645-56.6415Q53.8459-57.8433 53.8459-59.5166Q53.8459-61.3157 55.0645-62.4855Q56.2832-63.6553 58.0554-63.6553L74.6299-63.6553Q76.6766-63.6553 78.6161-63.451Q80.5556-63.2467 82.2865-62.8381L95.6021-62.8381Q98.4818-62.8381 98.4818-59.9981Q98.4818-58.8037 97.68-57.9507Q96.8782-57.0976 95.6021-57.0976L86.2435-57.0976Q87.7995-55.3258 88.6392-53.1621Q89.4788-50.9984 89.8447-48.4405L95.8716-48.4405Q98.7093-48.4405 98.7093-45.5785Q98.7093-44.3841 97.9285-43.5421Q97.1477-42.7001 95.8716-42.7001L89.7422-42.7001Q88.8717-36.8456 84.215-32.499Q79.5584-28.1524 70.5235-27.781L68.6991-27.7438L85.658-11.8456Q86.5486-11.0355 87.0499-10.0493Q87.5513-9.06306 87.5513-8.06515Q87.5513-6.01619 86.1005-4.73225Q84.6497-3.4483 82.8195-3.4483Z"/>
  </g>
  <g id="Medium-L" transform="matrix(1 0 0 1 1670.89 1556)">
   <path d="M75.6279 29.11Q88.9106 29.11 100.546 24.0981Q112.182 19.0862 121.078 10.1678Q129.973 1.24944 135.02-10.3864Q140.067-22.0223 140.067-35.2592Q140.067-48.4961 135.02-60.1319Q129.973-71.7678 121.055-80.6862Q112.137-89.6045 100.501-94.6164Q88.8648-99.6283 75.5822-99.6283Q62.3695-99.6283 50.7215-94.6164Q39.0736-89.6045 30.213-80.6862Q21.3525-71.7678 16.3056-60.1319Q11.2588-48.4961 11.2588-35.2592Q11.2588-22.0223 16.3056-10.3864Q21.3525 1.24944 30.2359 10.1678Q39.1193 19.0862 50.7673 24.0981Q62.4152 29.11 75.6279 29.11ZM82.9638-3.49185Q81.0207-3.49185 79.0256-5.42021L56.4178-26.7776Q55.3448-27.8401 54.6976-28.7904Q54.0504-29.7406 54.0504-31.3121Q54.0504-33.3189 55.3417-34.4639Q56.6329-35.609 58.5866-35.609L67.7485-35.609Q72.7587-35.609 75.8871-37.4635Q79.0156-39.318 79.7962-42.9497L57.0865-42.9497Q55.839-42.9497 55.0275-43.7961Q54.2161-44.6425 54.2161-45.8306Q54.2161-47.0861 55.0275-47.8923Q55.839-48.6985 57.0865-48.6985L79.7047-48.6985Q78.8703-52.1793 76.0977-54.1611Q73.325-56.1429 69.152-56.1429L57.5033-56.1429Q55.8872-56.1429 54.7617-57.2635Q53.6361-58.3841 53.6361-59.9092Q53.6361-61.5716 54.7617-62.6586Q55.8872-63.7455 57.5033-63.7455L74.3435-63.7455Q76.1522-63.7455 77.9158-63.6299Q79.6793-63.5142 81.3093-63.2829L94.5422-63.2829Q97.4368-63.2829 97.4368-60.4367Q97.4368-59.2486 96.6306-58.3914Q95.8244-57.5342 94.5422-57.5342L85.1101-57.5342Q86.7739-55.7376 87.6608-53.5281Q88.5477-51.3185 88.9125-48.6985L94.8434-48.6985Q97.6923-48.6985 97.6923-45.8306Q97.6923-44.6425 96.9089-43.7961Q96.1256-42.9497 94.8434-42.9497L88.8105-42.9497Q87.9415-36.9577 83.1723-32.6505Q78.4031-28.3433 69.1269-28.1331L67.0985-28.112L85.3943-10.9956Q86.1829-10.2874 86.6529-9.38973Q87.1229-8.49205 87.1229-7.57674Q87.1229-5.74187 85.8659-4.61686Q84.6089-3.49185 82.9638-3.49185Z"/>
  </g>
  <g id="Regular-L" transform="matrix(1 0 0 1 1374.98 1556)">
   <path d="M74.8194 28.2909Q87.9312 28.2909 99.4198 23.3434Q110.908 18.3959 119.697 9.58221Q128.485 0.768476 133.473-10.7201Q138.46-22.2086 138.46-35.2697Q138.46-48.3308 133.473-59.8193Q128.485-71.3079 119.671-80.1216Q110.858-88.9353 99.3691-93.8828Q87.8805-98.8303 74.7687-98.8303Q61.7374-98.8303 50.234-93.8828Q38.7306-88.9353 29.9824-80.1216Q21.2342-71.3079 16.2465-59.8193Q11.2588-48.3308 11.2588-35.2697Q11.2588-22.2086 16.2465-10.7201Q21.2342 0.768476 30.0077 9.58221Q38.7813 18.3959 50.2847 23.3434Q61.7881 28.2909 74.8194 28.2909ZM83.1521-3.54865Q81.4356-3.54865 79.7401-5.19349L55.8567-27.6206Q55.0491-28.4281 54.4382-29.2759Q53.8273-30.1237 53.8273-31.5272Q53.8273-33.2646 54.9538-34.3195Q56.0803-35.3744 57.7968-35.3744L67.3546-35.3744Q72.5928-35.3744 75.9147-37.3623Q79.2367-39.3502 80.0321-43.2753L56.7027-43.2753Q55.4424-43.2753 54.6305-44.1274Q53.8185-44.9796 53.8185-46.1595Q53.8185-47.411 54.6305-48.223Q55.4424-49.0349 56.7027-49.0349L79.9307-49.0349Q79.0934-52.7782 76.2132-54.9192Q73.3329-57.0601 69.0883-57.0601L56.7832-57.0601Q55.3708-57.0601 54.3666-58.0748Q53.3624-59.0895 53.3624-60.4215Q53.3624-61.9055 54.3666-62.8843Q55.3708-63.8632 56.7832-63.8632L73.97-63.8632Q75.4682-63.8632 77.0023-63.8632Q78.5363-63.8632 80.0346-63.8632L93.1598-63.8632Q96.0737-63.8632 96.0737-61.0087Q96.0737-59.8288 95.2618-58.9661Q94.4498-58.1035 93.1598-58.1035L83.6317-58.1035Q85.4361-56.2748 86.3846-54.0055Q87.3331-51.7361 87.6967-49.0349L93.5024-49.0349Q96.3657-49.0349 96.3657-46.1595Q96.3657-44.9796 95.5791-44.1274Q94.7925-43.2753 93.5024-43.2753L87.5953-43.2753Q86.7283-37.1039 81.8122-32.8481Q76.8961-28.5923 67.3052-28.5923L65.0107-28.5923L85.0504-9.88675Q85.7059-9.31166 86.135-8.52945Q86.5641-7.74724 86.5641-6.93969Q86.5641-5.38407 85.5599-4.46636Q84.5557-3.54865 83.1521-3.54865Z"/>
  </g>
  <g id="Light-L" transform="matrix(1 0 0 1 1079.2 1556)">
   <path d="M73.8959 27.3674Q86.8436 27.3674 98.1577 22.502Q109.472 17.6366 118.137 8.95629Q126.802 0.275949 131.708-11.0381Q136.614-22.3522 136.614-35.2697Q136.614-48.1872 131.708-59.5013Q126.802-70.8154 118.122-79.4957Q109.442-88.176 98.1275-93.0414Q86.8134-97.9069 73.8658-97.9069Q60.9986-97.9069 49.6594-93.0414Q38.3201-88.176 29.6951-79.4957Q21.07-70.8154 16.1644-59.5013Q11.2588-48.1872 11.2588-35.2697Q11.2588-22.3522 16.1644-11.0381Q21.07 0.275949 29.7102 8.95629Q38.3503 17.6366 49.6895 22.502Q61.0287 27.3674 73.8959 27.3674ZM82.7622-4.80049Q81.4151-4.80049 80.048-6.1375L55.6104-29.0571Q54.967-29.7005 54.4895-30.3841Q54.012-31.0677 54.012-32.1634Q54.012-33.4904 54.8615-34.3298Q55.7109-35.1692 57.058-35.1692L66.7184-35.1692Q72.4081-35.1692 75.9968-37.2802Q79.5855-39.3912 80.3194-43.5831L56.3744-43.5831Q55.2988-43.5831 54.6202-44.3018Q53.9417-45.0206 53.9417-46.0158Q53.9417-47.0211 54.6202-47.6997Q55.2988-48.3782 56.3744-48.3782L80.2591-48.3782Q79.5654-52.4293 76.6954-54.8268Q73.8254-57.2243 69.7039-57.2243L56.4548-57.2243Q55.2887-57.2243 54.4795-58.0235Q53.6702-58.8227 53.6702-59.9084Q53.6702-61.0846 54.4795-61.8787Q55.2887-62.6729 56.4548-62.6729L73.2928-62.6729Q74.7705-62.6729 76.2532-62.6729Q77.736-62.6729 79.2137-62.6729L91.518-62.6729Q94.001-62.6729 94.001-60.2904Q94.001-59.2952 93.3225-58.5865Q92.6439-57.8778 91.518-57.8778L81.9078-57.8778Q83.9585-56.008 84.9789-53.6155Q85.9992-51.2231 86.2807-48.3782L91.8196-48.3782Q94.2724-48.3782 94.2724-46.0158Q94.2724-45.0206 93.609-44.3018Q92.9455-43.5831 91.8196-43.5831L86.2203-43.5831Q85.4764-37.3706 80.5809-33.5356Q75.6853-29.7005 66.1354-29.7005L62.979-29.7005L84.25-9.90727Q84.8029-9.43479 85.1397-8.8065Q85.4764-8.1782 85.4764-7.53483Q85.4764-6.3486 84.6672-5.57454Q83.8579-4.80049 82.7622-4.80049Z"/>
  </g>
  <g id="Thin-L" transform="matrix(1 0 0 1 783.707 1556)">
   <path d="M72.6746 26.1461Q85.405 26.1461 96.4884 21.3892Q107.572 16.6324 116.074 8.12846Q124.577-0.375458 129.374-11.4588Q134.171-22.5422 134.171-35.2697Q134.171-47.9972 129.374-59.0806Q124.577-70.1639 116.073-78.6679Q107.569-87.1718 96.4854-91.9286Q85.402-96.6855 72.6715-96.6855Q60.0215-96.6855 48.8994-91.9286Q37.7773-87.1718 29.3151-78.6679Q20.8529-70.1639 16.0558-59.0806Q11.2588-47.9972 11.2588-35.2697Q11.2588-22.5422 16.0558-11.4588Q20.8529-0.375458 29.3166 8.12846Q37.7803 16.6324 48.9024 21.3892Q60.0245 26.1461 72.6746 26.1461ZM82.2465-6.45615Q81.388-6.45615 80.4551-7.38603L55.2847-30.9571Q54.8585-31.3833 54.5574-31.8498Q54.2563-32.3162 54.2563-33.0048Q54.2563-33.789 54.7393-34.3434Q55.2224-34.8978 56.0809-34.8978L65.877-34.8978Q72.1638-34.8978 76.1054-37.1716Q80.0469-39.4455 80.6994-43.9902L55.9401-43.9902Q55.1088-43.9902 54.6066-44.5326Q54.1045-45.0749 54.1045-45.8258Q54.1045-46.5054 54.6066-47.0075Q55.1088-47.5097 55.9401-47.5097L80.6933-47.5097Q80.1897-51.9679 77.3333-54.7047Q74.4768-57.4415 70.5182-57.4415L56.0205-57.4415Q55.1801-57.4415 54.6287-57.9557Q54.0773-58.4699 54.0773-59.2299Q54.0773-59.9989 54.6287-60.5488Q55.1801-61.0987 56.0205-61.0987L72.3971-61.0987Q73.8477-61.0987 75.2626-61.0987Q76.6774-61.0987 78.128-61.0987L89.3467-61.0987Q91.2597-61.0987 91.2597-59.3404Q91.2597-58.5895 90.7576-58.0844Q90.2554-57.5792 89.3467-57.5792L79.6279-57.5792Q82.0043-55.6552 83.1196-53.0998Q84.235-50.5445 84.4079-47.5097L89.594-47.5097Q91.504-47.5097 91.504-45.8258Q91.504-45.0749 91.0033-44.5326Q90.5027-43.9902 89.594-43.9902L84.4018-43.9902Q83.8208-37.7235 78.9524-34.4448Q74.0839-31.1662 64.5884-31.1662L60.292-31.1662L83.1915-9.93441Q83.6086-9.59764 83.8233-9.17291Q84.0379-8.74818 84.0379-8.32194Q84.0379-7.62427 83.4865-7.04021Q82.9351-6.45615 82.2465-6.45615Z"/>
  </g>
  <g id="Ultralight-L" transform="matrix(1 0 0 1 487.622 1556)">
   <path d="M72.049 25.5205Q84.6682 25.5205 95.6335 20.8192Q106.599 16.118 115.018 7.70445Q123.437-0.709105 128.178-11.6743Q132.92-22.6395 132.92-35.2697Q132.92-47.8999 128.178-58.8651Q123.437-69.8303 115.023-78.2439Q106.61-86.6574 95.6443-91.3586Q84.6791-96.0599 72.0598-96.0599Q59.521-96.0599 48.5101-91.3586Q37.4993-86.6574 29.1205-78.2439Q20.7417-69.8303 16.0002-58.8651Q11.2588-47.8999 11.2588-35.2697Q11.2588-22.6395 16.0002-11.6743Q20.7417-0.709105 29.115 7.70445Q37.4884 16.118 48.4992 20.8192Q59.5101 25.5205 72.049 25.5205ZM81.9824-7.30417Q81.3741-7.30417 80.6636-8.02552L55.1179-31.9302Q54.8028-32.2452 54.5921-32.6005Q54.3814-32.9557 54.3814-33.4358Q54.3814-33.9419 54.6768-34.3503Q54.9721-34.7588 55.5804-34.7588L65.4461-34.7588Q72.0387-34.7588 76.161-37.116Q80.2833-39.4733 80.894-44.1987L55.7177-44.1987Q55.0115-44.1987 54.5997-44.6507Q54.1879-45.1027 54.1879-45.7285Q54.1879-46.2413 54.5997-46.653Q55.0115-47.0648 55.7177-47.0648L80.9158-47.0648Q80.5094-51.7316 77.66-54.6421Q74.8105-57.5527 70.9352-57.5527L55.7981-57.5527Q55.1245-57.5527 54.7052-57.9209Q54.2859-58.2891 54.2859-58.8823Q54.2859-59.4428 54.7052-59.8676Q55.1245-60.2924 55.7981-60.2924L71.9383-60.2924Q73.375-60.2924 74.7551-60.2924Q76.1353-60.2924 77.5719-60.2924L88.2345-60.2924Q89.8556-60.2924 89.8556-58.8539Q89.8556-58.2281 89.4438-57.8272Q89.0321-57.4263 88.2345-57.4263L78.4602-57.4263Q81.0034-55.4744 82.1673-52.8357Q83.3313-50.197 83.4486-47.0648L88.454-47.0648Q90.086-47.0648 90.086-45.7285Q90.086-45.1027 89.6688-44.6507Q89.2515-44.1987 88.454-44.1987L83.4704-44.1987Q82.9728-37.9042 78.1182-34.9106Q73.2637-31.9169 63.7959-31.9169L58.9157-31.9169L82.6493-9.94831Q82.997-9.68105 83.149-9.36059Q83.3011-9.04012 83.3011-8.7251Q83.3011-8.27766 82.8818-7.79092Q82.4624-7.30417 81.9824-7.30417Z"/>
  </g>
  <g id="Black-M" transform="matrix(1 0 0 1 2871.36 1126)">
   <path d="M62.0423 18.1161Q73.0725 18.1161 82.714 13.9613Q92.3555 9.80654 99.704 2.45531Q107.052-4.89592 111.21-14.5374Q115.367-24.1789 115.367-35.2035Q115.367-46.2282 111.21-55.8697Q107.052-65.5112 99.7012-72.8624Q92.35-80.2136 82.7085-84.3684Q73.067-88.5232 62.0368-88.5232Q51.0119-88.5232 41.3705-84.3684Q31.7292-80.2136 24.3833-72.8624Q17.0375-65.5112 12.8801-55.8697Q8.72266-46.2282 8.72266-35.2035Q8.72266-24.1789 12.8801-14.5374Q17.0375-4.89592 24.3861 2.45531Q31.7347 9.80654 41.376 13.9613Q51.0174 18.1161 62.0423 18.1161ZM63.2663-10.8026Q60.8311-10.8026 58.0021-13.5119L46.2382-25.2453Q44.2267-27.1997 43.6017-28.3572Q42.9767-29.5148 42.9767-31.4092Q42.9767-34.0785 44.6499-35.3122Q46.3231-36.5458 48.8154-36.5458L54.1051-36.5458Q57.0788-36.5458 58.6924-37.4035Q60.306-38.2611 60.8209-39.7995L45.9022-39.7995Q45.0583-39.7995 44.4773-40.3831Q43.8964-40.9666 43.8964-41.8624Q43.8964-42.7696 44.4773-43.322Q45.0583-43.8744 45.9022-43.8744L60.8099-43.8744Q60.2262-45.4537 58.5826-46.3353Q56.939-47.2169 54.0814-47.2169L47.7916-47.2169Q45.675-47.2169 44.3041-48.505Q42.9332-49.7932 42.9332-51.7904Q42.9332-53.8041 44.3041-55.0866Q45.675-56.3691 47.7916-56.3691L59.1057-56.3691Q61.9456-56.3691 64.363-55.7411Q66.7803-55.113 68.6495-53.8569L79.1239-53.8569Q81.1294-53.8569 81.1294-51.8507Q81.1294-50.9549 80.577-50.3684Q80.0246-49.782 79.1239-49.782L72.2351-49.782Q72.9533-48.5261 73.378-47.0507Q73.8028-45.5754 74.0636-43.8744L79.1505-43.8744Q81.1506-43.8744 81.1506-41.8624Q81.1506-40.9666 80.6009-40.3831Q80.0513-39.7995 79.1505-39.7995L73.9955-39.7995Q73.355-35.9785 70.3509-32.5454Q67.3467-29.1123 61.6395-27.9704L61.0137-27.8562L67.4877-21.6243Q68.6832-20.491 69.2063-19.3103Q69.7295-18.1295 69.7295-16.9745Q69.7295-14.3785 67.6449-12.5906Q65.5603-10.8026 63.2663-10.8026Z"/>
  </g>
  <g id="Heavy-M" transform="matrix(1 0 0 1 2575.48 1126)">
   <path d="M61.2045 17.2648Q72.0509 17.2648 81.541 13.1749Q91.0312 9.08498 98.2688 1.83921Q105.506-5.40657 109.606-14.8967Q113.705-24.3868 113.705-35.217Q113.705-46.0473 109.606-55.5374Q105.506-65.0275 98.2607-72.2733Q91.0149-79.519 81.5248-83.6089Q72.0347-87.6988 61.1882-87.6988Q50.3604-87.6988 40.8691-83.6089Q31.3778-79.519 24.1495-72.2733Q16.9211-65.0275 12.8219-55.5374Q8.72266-46.0473 8.72266-35.217Q8.72266-24.3868 12.8219-14.8967Q16.9211-5.40657 24.1576 1.83921Q31.394 9.08498 40.8853 13.1749Q50.3767 17.2648 61.2045 17.2648ZM63.5913-10.6065Q61.3673-10.6065 58.8518-13.0186L45.5719-26.0172Q43.8654-27.68 43.2582-28.7415Q42.6511-29.803 42.6511-31.5483Q42.6511-33.9605 44.1727-35.1249Q45.6942-36.2893 47.9618-36.2893L53.7369-36.2893Q56.9059-36.2893 58.7101-37.2914Q60.5144-38.2935 61.0615-40.1507L45.4809-40.1507Q44.5809-40.1507 43.9706-40.7702Q43.3604-41.3898 43.3604-42.3148Q43.3604-43.2698 43.9706-43.8583Q44.5809-44.4467 45.4809-44.4467L61.0291-44.4467Q60.4107-46.2963 58.627-47.3268Q56.8433-48.3573 53.8674-48.3573L46.9391-48.3573Q45.0307-48.3573 43.7735-49.5559Q42.5163-50.7546 42.5163-52.5571Q42.5163-54.4083 43.7735-55.592Q45.0307-56.7756 46.9391-56.7756L58.7725-56.7756Q61.2188-56.7756 63.3531-56.2958Q65.4873-55.8159 67.1921-54.8562L77.7047-54.8562Q79.8277-54.8562 79.8277-52.7382Q79.8277-51.8132 79.2392-51.1867Q78.6508-50.5602 77.7047-50.5602L70.7106-50.5602Q71.5561-49.2719 72.0444-47.7463Q72.5326-46.2208 72.8094-44.4467L77.7932-44.4467Q79.9-44.4467 79.9-42.3148Q79.9-41.3898 79.3197-40.7702Q78.7393-40.1507 77.7932-40.1507L72.7333-40.1507Q72.0689-36.1086 68.8721-32.651Q65.6754-29.1934 59.556-28.321L58.7742-28.2337L67.2187-20.1987Q68.2658-19.214 68.7563-18.1481Q69.2469-17.0823 69.2469-16.0302Q69.2469-13.7127 67.4444-12.1596Q65.642-10.6065 63.5913-10.6065Z"/>
  </g>
  <g id="Bold-M" transform="matrix(1 0 0 1 2279.69 1126)">
   <path d="M60.2672 16.3124Q70.9082 16.3124 80.2289 12.2951Q89.5497 8.27781 96.6634 1.15Q103.777-5.9778 107.811-15.2986Q111.845-24.6193 111.845-35.2321Q111.845-45.8449 107.811-55.1656Q103.777-64.4864 96.6493-71.6142Q89.5215-78.742 80.2007-82.7593Q70.8799-86.7766 60.2389-86.7766Q49.6317-86.7766 40.3082-82.7593Q30.9846-78.742 23.8878-71.6142Q16.791-64.4864 12.7568-55.1656Q8.72266-45.8449 8.72266-35.2321Q8.72266-24.6193 12.7568-15.2986Q16.791-5.9778 23.902 1.15Q31.0129 8.27781 40.3364 12.2951Q49.6599 16.3124 60.2672 16.3124ZM63.9549-10.3871Q61.9672-10.3871 59.8023-12.4667L44.8265-26.8806Q43.4612-28.2174 42.874-29.1714Q42.2869-30.1253 42.2869-31.7039Q42.2869-33.8286 43.6388-34.9154Q44.9907-36.0023 47.007-36.0023L53.3251-36.0023Q56.7124-36.0023 58.73-37.1661Q60.7476-38.3298 61.3307-40.5435L45.0097-40.5435Q44.0468-40.5435 43.4038-41.2034Q42.7608-41.8633 42.7608-42.8209Q42.7608-43.8294 43.4038-44.4582Q44.0468-45.0869 45.0097-45.0869L61.2742-45.0869Q60.6171-47.2389 58.6767-48.4359Q56.7362-49.633 53.628-49.633L45.9855-49.633Q44.3099-49.633 43.1799-50.7315Q42.0499-51.83 42.0499-53.4148Q42.0499-55.0842 43.1799-56.1572Q44.3099-57.2303 45.9855-57.2303L58.3997-57.2303Q60.4058-57.2303 62.2234-56.9163Q64.0409-56.6022 65.5617-55.9742L76.1171-55.9742Q78.3715-55.9742 78.3715-53.7309Q78.3715-52.7733 77.7427-52.102Q77.114-51.4308 76.1171-51.4308L69.0052-51.4308Q69.9931-50.1061 70.5524-48.5245Q71.1118-46.9428 71.4064-45.0869L76.2749-45.0869Q78.501-45.0869 78.501-42.8209Q78.501-41.8633 77.8864-41.2034Q77.2717-40.5435 76.2749-40.5435L71.3214-40.5435Q70.6302-36.2541 67.2179-32.7691Q63.8057-29.2841 57.2251-28.7131L56.269-28.656L66.9179-18.604Q67.7988-17.7854 68.2529-16.8481Q68.7071-15.9109 68.7071-14.9738Q68.7071-12.9679 67.2202-11.6775Q65.7334-10.3871 63.9549-10.3871Z"/>
  </g>
  <g id="Semibold-M" transform="matrix(1 0 0 1 1983.62 1126)">
   <path d="M59.621 15.6559Q70.1203 15.6559 79.3244 11.6886Q88.5284 7.72135 95.5566 0.674869Q102.585-6.37161 106.574-15.5756Q110.564-24.7797 110.564-35.2425Q110.564-45.7053 106.574-54.9093Q102.585-64.1134 95.5384-71.1598Q88.4919-78.2063 79.2879-82.1736Q70.0838-86.1408 59.5845-86.1408Q49.1293-86.1408 39.9215-82.1736Q30.7136-78.2063 23.7075-71.1598Q16.7013-64.1134 12.712-54.9093Q8.72266-45.7053 8.72266-35.2425Q8.72266-24.7797 12.712-15.5756Q16.7013-6.37161 23.7257 0.674869Q30.7501 7.72135 39.958 11.6886Q49.1658 15.6559 59.621 15.6559ZM64.2056-10.2359Q62.3807-10.2359 60.4576-12.0862L44.3127-27.4759Q43.1825-28.5879 42.6091-29.4677Q42.0358-30.3476 42.0358-31.8112Q42.0358-33.7376 43.2707-34.771Q44.5057-35.8044 46.3487-35.8044L53.0411-35.8044Q56.579-35.8044 58.7437-37.0796Q60.9083-38.3548 61.5163-40.8143L44.6848-40.8143Q43.6787-40.8143 43.0131-41.502Q42.3475-42.1896 42.3475-43.1697Q42.3475-44.2152 43.0131-44.8717Q43.6787-45.5282 44.6848-45.5282L61.4432-45.5282Q60.7594-47.8887 58.7109-49.2005Q56.6624-50.5124 53.463-50.5124L45.3281-50.5124Q43.813-50.5124 42.7707-51.5419Q41.7284-52.5714 41.7284-54.006Q41.7284-55.5501 42.7707-56.547Q43.813-57.5438 45.3281-57.5438L58.1426-57.5438Q59.8453-57.5438 61.4445-57.344Q63.0437-57.1443 64.4378-56.7449L75.0227-56.7449Q77.3676-56.7449 77.3676-54.4152Q77.3676-53.4352 76.7111-52.7331Q76.0545-52.0309 75.0227-52.0309L67.8295-52.0309Q68.9156-50.6813 69.5239-49.0609Q70.1322-47.4405 70.4392-45.5282L75.2281-45.5282Q77.5365-45.5282 77.5365-43.1697Q77.5365-42.1896 76.8983-41.502Q76.26-40.8143 75.2281-40.8143L70.348-40.8143Q69.6384-36.3544 66.0776-32.8505Q62.5167-29.3466 55.6183-28.9835L54.5419-28.9472L66.7105-17.5046Q67.4769-16.8005 67.9059-15.9519Q68.3349-15.1033 68.3349-14.2455Q68.3349-12.4545 67.0656-11.3452Q65.7964-10.2359 64.2056-10.2359Z"/>
  </g>
  <g id="Medium-M" transform="matrix(1 0 0 1 1687.4 1126)">
   <path d="M59.1311 15.158Q69.523 15.158 78.6385 11.2287Q87.754 7.29942 94.7174 0.314603Q101.681-6.67021 105.636-15.7857Q109.591-24.9012 109.591-35.2504Q109.591-45.5995 105.636-54.715Q101.681-63.8305 94.696-70.8153Q87.7112-77.8002 78.5957-81.7295Q69.4802-85.6588 59.0883-85.6588Q48.7484-85.6588 39.6283-81.7295Q30.5081-77.8002 23.5707-70.8153Q16.6333-63.8305 12.678-54.715Q8.72266-45.5995 8.72266-35.2504Q8.72266-24.9012 12.678-15.7857Q16.6333-6.67021 23.5921 0.314603Q30.5509 7.29942 39.671 11.2287Q48.7912 15.158 59.1311 15.158ZM64.3957-10.1212Q62.6943-10.1212 60.9545-11.7977L43.923-27.9272Q42.9712-28.8688 42.4083-29.6924Q41.8454-30.5161 41.8454-31.8926Q41.8454-33.6686 42.9917-34.6615Q44.138-35.6544 45.8496-35.6544L52.8258-35.6544Q56.4779-35.6544 58.754-37.0141Q61.0302-38.3738 61.657-41.0196L44.4384-41.0196Q43.3995-41.0196 42.7168-41.7284Q42.0341-42.4371 42.0341-43.4342Q42.0341-44.5077 42.7168-45.1853Q43.3995-45.8629 44.4384-45.8629L61.5714-45.8629Q60.8673-48.3814 58.7369-49.7803Q56.6064-51.1793 53.3379-51.1793L44.8296-51.1793Q43.4363-51.1793 42.4605-52.1564Q41.4846-53.1336 41.4846-54.4543Q41.4846-55.9034 42.4605-56.8424Q43.4363-57.7815 44.8296-57.7815L57.9478-57.7815Q59.4203-57.7815 60.854-57.6684Q62.2877-57.5554 63.5855-57.3293L74.1928-57.3293Q76.6064-57.3293 76.6064-54.9342Q76.6064-53.937 75.9288-53.2115Q75.2512-52.486 74.1928-52.486L66.9381-52.486Q68.0986-51.1174 68.7441-49.4677Q69.3895-47.8179 69.7058-45.8629L74.4344-45.8629Q76.8052-45.8629 76.8052-43.4342Q76.8052-42.4371 76.149-41.7284Q75.4928-41.0196 74.4344-41.0196L69.61-41.0196Q68.8863-36.4304 65.2129-32.9122Q61.5394-29.3941 54.3999-29.1885L53.2324-29.168L66.5533-16.671Q67.2328-16.0537 67.6428-15.2723Q68.0527-14.491 68.0527-13.6933Q68.0527-12.0652 66.9484-11.0932Q65.8441-10.1212 64.3957-10.1212Z"/>
  </g>
  <g id="Regular-M" transform="matrix(1 0 0 1 1391.32 1126)">
   <path d="M58.492 14.5087Q68.7438 14.5087 77.7439 10.6289Q86.7439 6.74907 93.6228-0.155309Q100.502-7.05969 104.413-16.0597Q108.324-25.0598 108.324-35.2606Q108.324-45.4615 104.413-54.4616Q100.502-63.4616 93.5973-70.366Q86.693-77.2704 77.6929-81.1502Q68.6929-85.03 58.441-85.03Q48.2515-85.03 39.2458-81.1502Q30.2401-77.2704 23.3923-70.366Q16.5446-63.4616 12.6336-54.4616Q8.72266-45.4615 8.72266-35.2606Q8.72266-25.0598 12.6336-16.0597Q16.5446-7.05969 23.4178-0.155309Q30.291 6.74907 39.2968 10.6289Q48.3025 14.5087 58.492 14.5087ZM64.6436-9.97165Q63.1033-9.97165 61.6026-11.4214L43.4148-28.5159Q42.6956-29.2351 42.1463-29.9855Q41.597-30.7358 41.597-31.9987Q41.597-33.5786 42.6277-34.5187Q43.6583-35.4587 45.1986-35.4587L52.545-35.4587Q56.3459-35.4587 58.7675-36.9286Q61.1892-38.3986 61.8405-41.2875L44.1171-41.2875Q43.0354-41.2875 42.3304-42.0237Q41.6253-42.7599 41.6253-43.7793Q41.6253-44.8892 42.3304-45.5943Q43.0354-46.2994 44.1171-46.2994L61.7386-46.2994Q61.008-49.024 58.7707-50.5365Q56.5334-52.0491 53.1747-52.0491L44.1794-52.0491Q42.9449-52.0491 42.0558-52.958Q41.1667-53.8669 41.1667-55.0391Q41.1667-56.3643 42.0558-57.2279Q42.9449-58.0915 44.1794-58.0915L57.6936-58.0915Q58.866-58.0915 60.0837-58.0915Q61.3015-58.0915 62.4739-58.0915L73.1103-58.0915Q75.6135-58.0915 75.6135-55.611Q75.6135-54.5916 74.9084-53.8356Q74.2034-53.0796 73.1103-53.0796L65.7753-53.0796Q67.0329-51.6862 67.7269-49.9982Q68.4208-48.3102 68.7492-46.2994L73.3992-46.2994Q75.8514-46.2994 75.8514-43.7793Q75.8514-42.7599 75.1718-42.0237Q74.4922-41.2875 73.3992-41.2875L68.6473-41.2875Q67.9054-36.5296 64.085-32.9928Q60.2646-29.4559 52.8107-29.4559L51.5243-29.4559L66.3482-15.5837Q66.9145-15.0797 67.2996-14.386Q67.6846-13.6923 67.6846-12.9731Q67.6846-11.5573 66.7955-10.7645Q65.9064-9.97165 64.6436-9.97165Z"/>
  </g>
  <g id="Light-M" transform="matrix(1 0 0 1 1095.44 1126)">
   <path d="M57.664 13.6807Q67.7687 13.6807 76.6123 9.87453Q85.456 6.06831 92.2245-0.716478Q98.993-7.50127 102.83-16.3449Q106.668-25.1886 106.668-35.2606Q106.668-45.3327 102.83-54.1764Q98.993-63.02 92.2082-69.8048Q85.4234-76.5896 76.5798-80.3958Q67.7361-84.202 57.6315-84.202Q47.5892-84.202 38.7306-80.3958Q29.8721-76.5896 23.1348-69.8048Q16.3974-63.02 12.56-54.1764Q8.72266-45.3327 8.72266-35.2606Q8.72266-25.1886 12.56-16.3449Q16.3974-7.50127 23.151-0.716478Q29.9047 6.06831 38.7632 9.87453Q47.6217 13.6807 57.664 13.6807ZM64.294-11.094Q63.0849-11.094 61.8786-12.2677L43.194-29.8039Q42.622-30.3759 42.1923-30.979Q41.7626-31.5822 41.7626-32.569Q41.7626-33.781 42.5449-34.5279Q43.3271-35.2747 44.5362-35.2747L51.9746-35.2747Q56.1803-35.2747 58.8411-36.855Q61.5019-38.4354 62.0981-41.5634L43.8227-41.5634Q42.9066-41.5634 42.3212-42.1801Q41.7357-42.7967 41.7357-43.6505Q41.7357-44.5396 42.3212-45.1251Q42.9066-45.7106 43.8227-45.7106L62.0329-45.7106Q61.4312-48.7112 59.2031-50.4537Q56.975-52.1963 53.7267-52.1963L43.885-52.1963Q42.8713-52.1963 42.157-52.912Q41.4426-53.6277 41.4426-54.5791Q41.4426-55.6283 42.157-56.3263Q42.8713-57.0243 43.885-57.0243L57.0864-57.0243Q58.2405-57.0243 59.4122-57.0243Q60.5839-57.0243 61.738-57.0243L71.6384-57.0243Q73.7552-57.0243 73.7552-54.9671Q73.7552-54.1133 73.1697-53.4952Q72.5843-52.8772 71.6384-52.8772L64.2298-52.8772Q65.7082-51.447 66.4665-49.6486Q67.2248-47.8502 67.4797-45.7106L71.8905-45.7106Q73.9747-45.7106 73.9747-43.6505Q73.9747-42.7967 73.4055-42.1801Q72.8363-41.5634 71.8905-41.5634L67.4146-41.5634Q66.7831-36.7688 62.9811-33.6091Q59.1791-30.4495 51.762-30.4495L49.7028-30.4495L65.6306-15.6021Q66.1049-15.1901 66.4072-14.6344Q66.7095-14.0786 66.7095-13.5066Q66.7095-12.4221 65.9952-11.758Q65.2809-11.094 64.294-11.094Z"/>
  </g>
  <g id="Thin-M" transform="matrix(1 0 0 1 799.822 1126)">
   <path d="M56.569 12.5857Q66.479 12.5857 75.1158 8.87683Q83.7526 5.16794 90.3751-1.45867Q96.9976-8.08529 100.738-16.7221Q104.478-25.3589 104.478-35.2606Q104.478-45.1624 100.738-53.7992Q96.9976-62.436 90.371-69.0626Q83.7444-75.6892 75.1076-79.3981Q66.4707-83.107 56.5608-83.107Q46.7131-83.107 38.0493-79.3981Q29.3854-75.6892 22.7941-69.0626Q16.2027-62.436 12.4627-53.7992Q8.72266-45.1624 8.72266-35.2606Q8.72266-25.3589 12.4627-16.7221Q16.2027-8.08529 22.7982-1.45867Q29.3936 5.16794 38.0575 8.87683Q46.7214 12.5857 56.569 12.5857ZM63.8317-12.5784Q63.0606-12.5784 62.2436-13.3871L42.902-31.5073Q42.5247-31.8846 42.2532-32.2931Q41.9816-32.7016 41.9816-33.3234Q41.9816-34.0487 42.4354-34.54Q42.8891-35.0314 43.6602-35.0314L51.2202-35.0314Q55.9613-35.0314 58.9385-36.7577Q61.9156-38.484 62.4387-41.9285L43.4334-41.9285Q42.7363-41.9285 42.309-42.3869Q41.8817-42.8454 41.8817-43.4801Q41.8817-44.0773 42.309-44.5046Q42.7363-44.9319 43.4334-44.9319L62.4223-44.9319Q61.9909-48.2976 59.7749-50.3442Q57.559-52.3909 54.4567-52.3909L43.4957-52.3909Q42.7739-52.3909 42.2908-52.8511Q41.8077-53.3113 41.8077-53.9708Q41.8077-54.6549 42.2908-55.1339Q42.7739-55.613 43.4957-55.613L56.2834-55.613Q57.4131-55.613 58.524-55.613Q59.6349-55.613 60.7646-55.613L69.6917-55.613Q71.2975-55.613 71.2975-54.1154Q71.2975-53.4806 70.8702-53.0451Q70.4429-52.6095 69.6917-52.6095L62.1857-52.6095Q63.9562-51.1307 64.7996-49.1863Q65.6431-47.2419 65.8006-44.9319L69.8951-44.9319Q71.4926-44.9319 71.4926-43.4801Q71.4926-42.8454 71.0694-42.3869Q70.6462-41.9285 69.8951-41.9285L65.7842-41.9285Q65.2987-37.0851 61.521-34.4243Q57.7434-31.7635 50.3749-31.7635L47.2937-31.7635L64.6816-15.6264Q65.0342-15.3361 65.227-14.9629Q65.4198-14.5897 65.4198-14.2123Q65.4198-13.5658 64.9366-13.0721Q64.4535-12.5784 63.8317-12.5784Z"/>
  </g>
  <g id="Ultralight-M" transform="matrix(1 0 0 1 503.672 1126)">
   <path d="M56.0081 12.0248Q65.8184 12.0248 74.3492 8.36581Q82.8801 4.70678 89.4278-1.83882Q95.9756-8.38442 99.6657-16.9153Q103.356-25.4462 103.356-35.2606Q103.356-45.0751 99.6657-53.606Q95.9756-62.1369 89.43-68.6825Q82.8844-75.2281 74.3535-78.8871Q65.8226-82.5461 56.0124-82.5461Q46.2644-82.5461 37.7003-78.8871Q29.1361-75.2281 22.6196-68.6825Q16.103-62.1369 12.4128-53.606Q8.72266-45.0751 8.72266-35.2606Q8.72266-25.4462 12.4128-16.9153Q16.103-8.38442 22.6175-1.83882Q29.1319 4.70678 37.6961 8.36581Q46.2602 12.0248 56.0081 12.0248ZM63.5949-13.3387Q63.0481-13.3387 62.4306-13.9605L42.7525-32.3797Q42.4748-32.6574 42.2843-32.9661Q42.0938-33.2749 42.0938-33.7098Q42.0938-34.1858 42.3793-34.5463Q42.6647-34.9067 43.2115-34.9067L50.8339-34.9067Q55.8492-34.9067 58.9883-36.7079Q62.1275-38.509 62.6132-42.1154L43.234-42.1154Q42.649-42.1154 42.3028-42.4929Q41.9565-42.8703 41.9565-43.3929Q41.9565-43.8405 42.3028-44.1868Q42.649-44.533 43.234-44.533L62.6217-44.533Q62.2775-48.0857 60.0678-50.2882Q57.8581-52.4906 54.8306-52.4906L43.2963-52.4906Q42.7241-52.4906 42.3593-52.82Q41.9946-53.1493 41.9946-53.6592Q41.9946-54.1564 42.3593-54.5232Q42.7241-54.8901 43.2963-54.8901L55.8721-54.8901Q56.9893-54.8901 58.0691-54.8901Q59.1488-54.8901 60.266-54.8901L68.6946-54.8901Q70.0386-54.8901 70.0386-53.6791Q70.0386-53.1565 69.6923-52.8145Q69.346-52.4724 68.6946-52.4724L61.1388-52.4724Q63.0588-50.9686 63.9459-48.9495Q64.833-46.9303 64.9406-44.533L68.873-44.533Q70.2213-44.533 70.2213-43.3929Q70.2213-42.8703 69.8729-42.4929Q69.5245-42.1154 68.873-42.1154L64.9491-42.1154Q64.5384-37.2472 60.7732-34.8419Q57.008-32.4365 49.6645-32.4365L46.0598-32.4365L64.1955-15.6389Q64.4858-15.4109 64.6225-15.1311Q64.7592-14.8514 64.7592-14.5738Q64.7592-14.1516 64.3945-13.7451Q64.0297-13.3387 63.5949-13.3387Z"/>
  </g>
  <g id="Black-S" transform="matrix(1 0 0 1 2884.57 696)">
   <path d="M48.8281 6.78711Q57.5195 6.78711 65.1123 3.51562Q72.7051 0.244141 78.4912-5.54199Q84.2773-11.3281 87.5488-18.9209Q90.8203-26.5137 90.8203-35.2051Q90.8203-43.8965 87.5488-51.4893Q84.2773-59.082 78.4912-64.8682Q72.7051-70.6543 65.1123-73.9258Q57.5195-77.1973 48.8281-77.1973Q40.1367-77.1973 32.5439-73.9258Q24.9512-70.6543 19.165-64.8682Q13.3789-59.082 10.1074-51.4893Q6.83594-43.8965 6.83594-35.2051Q6.83594-26.5137 10.1074-18.9209Q13.3789-11.3281 19.165-5.54199Q24.9512 0.244141 32.5439 3.51562Q40.1367 6.78711 48.8281 6.78711ZM49.4629-16.2109Q47.5098-16.2109 45.2148-18.4082L36.4258-27.2461Q34.7656-28.8574 34.2773-29.7852Q33.7891-30.7129 33.7891-32.2266Q33.7891-34.375 35.1318-35.3516Q36.4746-36.3281 38.4766-36.3281L42.4805-36.3281Q44.7754-36.3281 45.9961-36.9629Q47.2168-37.5977 47.6074-38.7207L36.084-38.7207Q35.4492-38.7207 35.0098-39.1602Q34.5703-39.5996 34.5703-40.2832Q34.5703-40.9668 35.0098-41.3818Q35.4492-41.7969 36.084-41.7969L47.6074-41.7969Q47.168-42.9688 45.9229-43.6279Q44.6777-44.2871 42.4805-44.2871L37.6953-44.2871Q35.9863-44.2871 34.8877-45.3125Q33.7891-46.3379 33.7891-47.9492Q33.7891-49.5605 34.8877-50.5859Q35.9863-51.6113 37.6953-51.6113L46.3867-51.6113Q48.7305-51.6113 50.708-51.0742Q52.6855-50.5371 54.1992-49.4629L62.3535-49.4629Q63.8672-49.4629 63.8672-47.9492Q63.8672-47.2656 63.4521-46.8262Q63.0371-46.3867 62.3535-46.3867L56.9824-46.3867Q57.5195-45.4102 57.8369-44.2627Q58.1543-43.1152 58.3496-41.7969L62.3535-41.7969Q63.8672-41.7969 63.8672-40.2832Q63.8672-39.5996 63.4521-39.1602Q63.0371-38.7207 62.3535-38.7207L58.3008-38.7207Q57.8125-35.791 55.5176-33.1299Q53.2227-30.4688 48.877-29.4922L48.3887-29.3945L52.9297-25Q53.9062-24.0723 54.3213-23.1201Q54.7363-22.168 54.7363-21.2402Q54.7363-19.1406 53.0273-17.6758Q51.3184-16.2109 49.4629-16.2109Z"/>
  </g>
  <g id="Heavy-S" transform="matrix(1 0 0 1 2588.47 696)">
   <path d="M48.2173 6.16479Q56.7704 6.16479 64.2537 2.9394Q71.737-0.285985 77.4425-5.99721Q83.1479-11.7084 86.3791-19.1917Q89.6102-26.675 89.6102-35.2166Q89.6102-43.7582 86.3791-51.2415Q83.1479-58.7248 77.4367-64.436Q71.7255-70.1472 64.2422-73.3726Q56.7589-76.598 48.2058-76.598Q39.6642-76.598 32.1809-73.3726Q24.6976-70.1472 18.9979-64.436Q13.2982-58.7248 10.0671-51.2415Q6.83594-43.7582 6.83594-35.2166Q6.83594-26.675 10.0671-19.1917Q13.2982-11.7084 19.0037-5.99721Q24.7092-0.285985 32.1924 2.9394Q39.6757 6.16479 48.2173 6.16479ZM49.7856-15.8998Q47.9707-15.8998 45.9063-17.8781L35.8841-27.7416Q34.466-29.1225 33.9777-29.9868Q33.4894-30.8512 33.4894-32.2727Q33.4894-34.2482 34.7342-35.1902Q35.9791-36.1322 37.8312-36.1322L42.2385-36.1322Q44.6486-36.1322 46.0019-36.8765Q47.3551-37.6207 47.7803-38.9858L35.7613-38.9858Q35.0574-38.9858 34.5776-39.4713Q34.0978-39.9569 34.0978-40.6866Q34.0978-41.4393 34.5776-41.9004Q35.0574-42.3616 35.7613-42.3616L47.7572-42.3616Q47.2717-43.7294 45.9056-44.4865Q44.5394-45.2436 42.2269-45.2436L37.0038-45.2436Q35.4447-45.2436 34.421-46.2172Q33.3972-47.1907 33.3972-48.6637Q33.3972-50.1713 34.421-51.1333Q35.4447-52.0954 37.0038-52.0954L46.1793-52.0954Q48.1888-52.0954 49.9301-51.685Q51.6714-51.2747 53.0468-50.454L61.3278-50.454Q62.9913-50.454 62.9913-48.7905Q62.9913-48.0608 62.5302-47.5695Q62.0691-47.0782 61.3278-47.0782L55.8761-47.0782Q56.4939-46.0786 56.8573-44.9023Q57.2208-43.726 57.4392-42.3616L61.3855-42.3616Q63.0374-42.3616 63.0374-40.6866Q63.0374-39.9569 62.5821-39.4713Q62.1267-38.9858 61.3855-38.9858L57.3788-38.9858Q56.856-35.8717 54.3939-33.1414Q51.9319-30.4111 47.229-29.6651L46.7061-29.5904L52.7914-23.7784Q53.6527-22.9659 54.0505-22.0944Q54.4482-21.223 54.4482-20.3644Q54.4482-18.4607 52.9582-17.1802Q51.4682-15.8998 49.7856-15.8998Z"/>
  </g>
  <g id="Bold-S" transform="matrix(1 0 0 1 2292.43 696)">
   <path d="M47.5342 5.46875Q55.9326 5.46875 63.2935 2.29492Q70.6543-0.878906 76.2695-6.50635Q81.8848-12.1338 85.0708-19.4946Q88.2568-26.8555 88.2568-35.2295Q88.2568-43.6035 85.0708-50.9644Q81.8848-58.3252 76.2573-63.9526Q70.6299-69.5801 63.269-72.7539Q55.9082-75.9277 47.5098-75.9277Q39.1357-75.9277 31.7749-72.7539Q24.4141-69.5801 18.811-63.9526Q13.208-58.3252 10.022-50.9644Q6.83594-43.6035 6.83594-35.2295Q6.83594-26.8555 10.022-19.4946Q13.208-12.1338 18.8232-6.50635Q24.4385-0.878906 31.7993 2.29492Q39.1602 5.46875 47.5342 5.46875ZM50.1465-15.5518Q48.4863-15.5518 46.6797-17.2852L35.2783-28.2959Q34.1309-29.4189 33.6426-30.2124Q33.1543-31.0059 33.1543-32.3242Q33.1543-34.1064 34.2896-35.0098Q35.4248-35.9131 37.1094-35.9131L41.9678-35.9131Q44.5068-35.9131 46.0083-36.7798Q47.5098-37.6465 47.9736-39.2822L35.4004-39.2822Q34.6191-39.2822 34.0942-39.8193Q33.5693-40.3564 33.5693-41.1377Q33.5693-41.9678 34.0942-42.4805Q34.6191-42.9932 35.4004-42.9932L47.9248-42.9932Q47.3877-44.5801 45.8862-45.4468Q44.3848-46.3135 41.9434-46.3135L36.2305-46.3135Q34.8389-46.3135 33.8989-47.229Q32.959-48.1445 32.959-49.4629Q32.959-50.8545 33.8989-51.7456Q34.8389-52.6367 36.2305-52.6367L45.9473-52.6367Q47.583-52.6367 49.0601-52.3682Q50.5371-52.0996 51.7578-51.5625L60.1807-51.5625Q62.0117-51.5625 62.0117-49.7314Q62.0117-48.9502 61.499-48.4009Q60.9863-47.8516 60.1807-47.8516L54.6387-47.8516Q55.3467-46.8262 55.7617-45.6177Q56.1768-44.4092 56.4209-42.9932L60.3027-42.9932Q62.1094-42.9932 62.1094-41.1377Q62.1094-40.3564 61.6089-39.8193Q61.1084-39.2822 60.3027-39.2822L56.3477-39.2822Q55.7861-35.9619 53.1372-33.1543Q50.4883-30.3467 45.3857-29.8584L44.8242-29.8096L52.6367-22.4121Q53.3691-21.7285 53.7476-20.9473Q54.126-20.166 54.126-19.3848Q54.126-17.7002 52.8809-16.626Q51.6357-15.5518 50.1465-15.5518Z"/>
  </g>
  <g id="Semibold-S" transform="matrix(1 0 0 1 1996.19 696)">
   <path d="M47.0632 4.98887Q55.355 4.98887 62.6314 1.85059Q69.9078-1.2877 75.4608-6.85737Q81.0139-12.4271 84.1688-19.7035Q87.3237-26.9799 87.3237-35.2384Q87.3237-43.4969 84.1688-50.7733Q81.0139-58.0497 75.4442-63.6194Q69.8745-69.1891 62.5981-72.3273Q55.3217-75.4656 47.0299-75.4656Q38.7714-75.4656 31.495-72.3273Q24.2186-69.1891 18.6822-63.6194Q13.1458-58.0497 9.99087-50.7733Q6.83594-43.4969 6.83594-35.2384Q6.83594-26.9799 9.99087-19.7035Q13.1458-12.4271 18.6988-6.85737Q24.2519-1.2877 31.5283 1.85059Q38.8047 4.98887 47.0632 4.98887ZM50.3953-15.3118Q48.8418-15.3118 47.2129-16.8764L34.8606-28.678Q33.8998-29.6233 33.4115-30.3679Q32.9232-31.1125 32.9232-32.3598Q32.9232-34.0087 33.983-34.8854Q35.0427-35.762 36.6117-35.762L41.7812-35.762Q44.4091-35.762 46.0127-36.7131Q47.6164-37.6643 48.1069-39.4866L35.1516-39.4866Q34.317-39.4866 33.761-40.0593Q33.205-40.6319 33.205-41.4487Q33.205-42.3321 33.761-42.8804Q34.317-43.4286 35.1516-43.4286L48.0403-43.4286Q47.4677-45.1666 45.8729-46.1088Q44.2781-47.0511 41.7479-47.0511L35.6973-47.0511Q34.4212-47.0511 33.539-47.9266Q32.6568-48.8021 32.6568-50.0139Q32.6568-51.3255 33.539-52.1677Q34.4212-53.01 35.6973-53.01L45.7873-53.01Q47.1653-53.01 48.4602-52.8392Q49.7551-52.6684 50.8691-52.3268L59.3897-52.3268Q61.3363-52.3268 61.3363-50.3802Q61.3363-49.5634 60.7881-48.9741Q60.2398-48.3848 59.3897-48.3848L53.7855-48.3848Q54.5558-47.3416 55.0063-46.1109Q55.4569-44.8802 55.7188-43.4286L59.5562-43.4286Q61.4695-43.4286 61.4695-41.4487Q61.4695-40.6319 60.9379-40.0593Q60.4063-39.4866 59.5562-39.4866L55.6367-39.4866Q55.0485-36.0241 52.2708-33.1632Q49.493-30.3022 44.1149-29.9917L43.5268-29.9606L52.5301-21.4701Q53.1736-20.8754 53.5387-20.1563Q53.9038-19.4373 53.9038-18.7094Q53.9038-17.1759 52.8275-16.2438Q51.7513-15.3118 50.3953-15.3118Z"/>
  </g>
  <g id="Medium-S" transform="matrix(1 0 0 1 1699.83 696)">
   <path d="M46.7061 4.625Q54.917 4.625 62.1294 1.51367Q69.3418-1.59766 74.8477-7.12354Q80.3535-12.6494 83.4849-19.8618Q86.6162-27.0742 86.6162-35.2451Q86.6162-43.416 83.4849-50.6284Q80.3535-57.8408 74.8276-63.3667Q69.3018-68.8926 62.0894-72.0039Q54.877-75.1152 46.666-75.1152Q38.4951-75.1152 31.2827-72.0039Q24.0703-68.8926 18.5845-63.3667Q13.0986-57.8408 9.96729-50.6284Q6.83594-43.416 6.83594-35.2451Q6.83594-27.0742 9.96729-19.8618Q13.0986-12.6494 18.6045-7.12354Q24.1104-1.59766 31.3228 1.51367Q38.5352 4.625 46.7061 4.625ZM50.584-15.1299Q49.1113-15.1299 47.6172-16.5664L34.5439-28.9678Q33.7246-29.7783 33.2363-30.4858Q32.748-31.1934 32.748-32.3867Q32.748-33.9346 33.7505-34.791Q34.7529-35.6475 36.2344-35.6475L41.6396-35.6475Q44.335-35.6475 46.0161-36.6626Q47.6973-37.6777 48.208-39.6416L34.9629-39.6416Q34.0879-39.6416 33.5083-40.2412Q32.9287-40.8408 32.9287-41.6846Q32.9287-42.6084 33.5083-43.1836Q34.0879-43.7588 34.9629-43.7588L48.1279-43.7588Q47.5283-45.6113 45.8628-46.6108Q44.1973-47.6104 41.5996-47.6104L35.293-47.6104Q34.1045-47.6104 33.2661-48.4556Q32.4277-49.3008 32.4277-50.4316Q32.4277-51.6826 33.2661-52.4878Q34.1045-53.293 35.293-53.293L45.666-53.293Q46.8486-53.293 48.0054-53.1963Q49.1621-53.0996 50.1953-52.9062L58.79-52.9062Q60.8242-52.9062 60.8242-50.8721Q60.8242-50.0283 60.249-49.4087Q59.6738-48.7891 58.79-48.7891L53.1387-48.7891Q53.9561-47.7324 54.4336-46.4849Q54.9111-45.2373 55.1865-43.7588L58.9902-43.7588Q60.9844-43.7588 60.9844-41.6846Q60.9844-40.8408 60.4292-40.2412Q59.874-39.6416 58.9902-39.6416L55.0977-39.6416Q54.4893-36.0713 51.6138-33.1699Q48.7383-30.2686 43.1514-30.0928L42.543-30.0752L52.4492-20.7559Q53.0254-20.2285 53.3804-19.5566Q53.7354-18.8848 53.7354-18.1973Q53.7354-16.7783 52.7871-15.9541Q51.8389-15.1299 50.584-15.1299Z"/>
  </g>
  <g id="Regular-S" transform="matrix(1 0 0 1 1403.58 696)">
   <path d="M46.2402 4.15039Q54.3457 4.15039 61.4746 1.07422Q68.6035-2.00195 74.0479-7.4707Q79.4922-12.9395 82.5928-20.0684Q85.6934-27.1973 85.6934-35.2539Q85.6934-43.3105 82.5928-50.4395Q79.4922-57.5684 74.0234-63.0371Q68.5547-68.5059 61.4258-71.582Q54.2969-74.6582 46.1914-74.6582Q38.1348-74.6582 31.0059-71.582Q23.877-68.5059 18.457-63.0371Q13.0371-57.5684 9.93652-50.4395Q6.83594-43.3105 6.83594-35.2539Q6.83594-27.1973 9.93652-20.0684Q13.0371-12.9395 18.4814-7.4707Q23.9258-2.00195 31.0547 1.07422Q38.1836 4.15039 46.2402 4.15039ZM50.8301-14.8926Q49.4629-14.8926 48.1445-16.1621L34.1309-29.3457Q33.4961-29.9805 33.0078-30.6396Q32.5195-31.2988 32.5195-32.4219Q32.5195-33.8379 33.4473-34.668Q34.375-35.498 35.7422-35.498L41.4551-35.498Q44.2383-35.498 46.0205-36.5967Q47.8027-37.6953 48.3398-39.8438L34.7168-39.8438Q33.7891-39.8438 33.1787-40.4785Q32.5684-41.1133 32.5684-41.9922Q32.5684-42.9688 33.1787-43.5791Q33.7891-44.1895 34.7168-44.1895L48.2422-44.1895Q47.6074-46.1914 45.8496-47.2656Q44.0918-48.3398 41.4062-48.3398L34.7656-48.3398Q33.6914-48.3398 32.9102-49.1455Q32.1289-49.9512 32.1289-50.9766Q32.1289-52.1484 32.9102-52.9053Q33.6914-53.6621 34.7656-53.6621L45.5078-53.6621Q46.4355-53.6621 47.4121-53.6621Q48.3887-53.6621 49.3164-53.6621L58.0078-53.6621Q60.1562-53.6621 60.1562-51.5137Q60.1562-50.6348 59.5459-49.9756Q58.9355-49.3164 58.0078-49.3164L52.2949-49.3164Q53.1738-48.2422 53.6865-46.9727Q54.1992-45.7031 54.4922-44.1895L58.252-44.1895Q60.3516-44.1895 60.3516-41.9922Q60.3516-41.1133 59.7656-40.4785Q59.1797-39.8438 58.252-39.8438L54.3945-39.8438Q53.7598-36.1328 50.7568-33.1787Q47.7539-30.2246 41.8945-30.2246L41.2598-30.2246L52.3438-19.8242Q52.832-19.3848 53.1738-18.7744Q53.5156-18.1641 53.5156-17.5293Q53.5156-16.2598 52.7344-15.5762Q51.9531-14.8926 50.8301-14.8926Z"/>
  </g>
  <g id="Light-S" transform="matrix(1 0 0 1 1107.6 696)">
   <path d="M45.5078 3.41797Q53.4831 3.41797 60.4736 0.406901Q67.4642-2.60417 72.8109-7.96712Q78.1576-13.3301 81.193-20.3206Q84.2285-27.3112 84.2285-35.2539Q84.2285-43.1966 81.193-50.1872Q78.1576-57.1777 72.7946-62.5407Q67.4316-67.9036 60.4411-70.9147Q53.4505-73.9258 45.4753-73.9258Q37.5488-73.9258 30.5501-70.9147Q23.5514-67.9036 18.2292-62.5407Q12.9069-57.1777 9.87142-50.1872Q6.83594-43.1966 6.83594-35.2539Q6.83594-27.3112 9.87142-20.3206Q12.9069-13.3301 18.2454-7.96712Q23.584-2.60417 30.5827 0.406901Q37.5814 3.41797 45.5078 3.41797ZM50.5208-15.8854Q49.4466-15.8854 48.3887-16.9108L33.9355-30.485Q33.431-30.9896 33.0485-31.5186Q32.666-32.0475 32.666-32.9264Q32.666-34.0169 33.374-34.6761Q34.082-35.3353 35.1562-35.3353L40.9505-35.3353Q44.0918-35.3353 46.0856-36.5316Q48.0794-37.7279 48.5677-40.0879L34.4564-40.0879Q33.6751-40.0879 33.1706-40.6169Q32.666-41.1458 32.666-41.8783Q32.666-42.6595 33.1706-43.1641Q33.6751-43.6686 34.4564-43.6686L48.5026-43.6686Q47.9818-45.9147 46.2321-47.1924Q44.4824-48.4701 41.8945-48.4701L34.5052-48.4701Q33.6263-48.4701 32.9997-49.1048Q32.373-49.7396 32.373-50.5697Q32.373-51.4974 32.9997-52.1077Q33.6263-52.7181 34.5052-52.7181L44.9707-52.7181Q45.8822-52.7181 46.818-52.7181Q47.7539-52.7181 48.6654-52.7181L56.7057-52.7181Q58.5124-52.7181 58.5124-50.944Q58.5124-50.2116 58.0078-49.6745Q57.5033-49.1374 56.7057-49.1374L50.9277-49.1374Q52.002-48.0306 52.5716-46.6634Q53.1413-45.2962 53.3691-43.6686L56.9173-43.6686Q58.6914-43.6686 58.6914-41.8783Q58.6914-41.1458 58.2031-40.6169Q57.7148-40.0879 56.9173-40.0879L53.304-40.0879Q52.7669-36.3444 49.7803-33.724Q46.7936-31.1035 40.9668-31.1035L39.6484-31.1035L51.709-19.8405Q52.1159-19.4824 52.3844-18.9941Q52.653-18.5059 52.653-18.0013Q52.653-17.0247 52.0264-16.4551Q51.3997-15.8854 50.5208-15.8854Z"/>
  </g>
  <g id="Thin-S" transform="matrix(1 0 0 1 811.859 696)">
   <path d="M44.5391 2.44928Q52.3422 2.44928 59.1498-0.47568Q65.9573-3.40064 71.1749-8.62368Q76.3924-13.8467 79.3418-20.6543Q82.2911-27.4619 82.2911-35.2539Q82.2911-43.0459 79.3418-49.8535Q76.3924-56.6611 71.1694-61.8841Q65.9463-67.1072 59.1387-70.0321Q52.3311-72.9571 44.5281-72.9571Q36.7739-72.9571 29.9474-70.0321Q23.1209-67.1072 17.9278-61.8841Q12.7347-56.6611 9.78531-49.8535Q6.83594-43.0459 6.83594-35.2539Q6.83594-27.4619 9.78531-20.6543Q12.7347-13.8467 17.9333-8.62368Q23.1319-3.40064 29.9584-0.47568Q36.7849 2.44928 44.5391 2.44928ZM50.1118-17.1985Q49.4251-17.1985 48.7116-17.901L33.6772-31.9919Q33.3449-32.3242 33.1023-32.681Q32.8598-33.0377 32.8598-33.5938Q32.8598-34.2537 33.2772-34.6869Q33.6946-35.12 34.3813-35.12L40.2832-35.12Q43.8981-35.12 46.1717-36.4455Q48.4454-37.7709 48.8691-40.4108L34.112-40.4108Q33.5244-40.4108 33.1598-40.7998Q32.7952-41.1889 32.7952-41.7276Q32.7952-42.2505 33.1598-42.6151Q33.5244-42.9798 34.112-42.9798L48.847-42.9798Q48.4769-45.5488 46.738-47.0955Q44.9991-48.6423 42.5403-48.6423L34.1608-48.6423Q33.5402-48.6423 33.1181-49.051Q32.6959-49.4597 32.6959-50.0315Q32.6959-50.6363 33.1181-51.053Q33.5402-51.4696 34.1608-51.4696L44.2603-51.4696Q45.1503-51.4696 46.0323-51.4696Q46.9144-51.4696 47.8043-51.4696L54.9836-51.4696Q56.3382-51.4696 56.3382-50.1906Q56.3382-49.6519 55.9736-49.2762Q55.6089-48.9006 54.9836-48.9006L49.1195-48.9006Q50.4521-47.7508 51.0971-46.2544Q51.7421-44.7581 51.8838-42.9798L55.1522-42.9798Q56.4957-42.9798 56.4957-41.7276Q56.4957-41.1889 56.1366-40.7998Q55.7775-40.4108 55.1522-40.4108L51.8618-40.4108Q51.4538-36.6242 48.4887-34.4451Q45.5236-32.2659 39.7398-32.2659L37.5173-32.2659L50.8695-19.862Q51.1687-19.6116 51.3404-19.2847Q51.5121-18.9579 51.5121-18.6256Q51.5121-18.0365 51.09-17.6175Q50.6678-17.1985 50.1118-17.1985Z"/>
  </g>
  <g id="Ultralight-S" transform="matrix(1 0 0 1 515.644 696)">
   <path d="M44.043 1.95312Q51.7578 1.95312 58.4717-0.927734Q65.1855-3.80859 70.3369-8.95996Q75.4883-14.1113 78.3936-20.8252Q81.2988-27.5391 81.2988-35.2539Q81.2988-42.9688 78.3936-49.6826Q75.4883-56.3965 70.3369-61.5479Q65.1855-66.6992 58.4717-69.5801Q51.7578-72.4609 44.043-72.4609Q36.377-72.4609 29.6387-69.5801Q22.9004-66.6992 17.7734-61.5479Q12.6465-56.3965 9.74121-49.6826Q6.83594-42.9688 6.83594-35.2539Q6.83594-27.5391 9.74121-20.8252Q12.6465-14.1113 17.7734-8.95996Q22.9004-3.80859 29.6387-0.927734Q36.377 1.95312 44.043 1.95312ZM49.9023-17.8711Q49.4141-17.8711 48.877-18.4082L33.5449-32.7637Q33.3008-33.0078 33.1299-33.2764Q32.959-33.5449 32.959-33.9355Q32.959-34.375 33.2275-34.6924Q33.4961-35.0098 33.9844-35.0098L39.9414-35.0098Q43.7988-35.0098 46.2158-36.4014Q48.6328-37.793 49.0234-40.5762L33.9355-40.5762Q33.4473-40.5762 33.1543-40.8936Q32.8613-41.2109 32.8613-41.6504Q32.8613-42.041 33.1543-42.334Q33.4473-42.627 33.9355-42.627L49.0234-42.627Q48.7305-45.3613 46.9971-47.0459Q45.2637-48.7305 42.8711-48.7305L33.9844-48.7305Q33.4961-48.7305 33.1787-49.0234Q32.8613-49.3164 32.8613-49.7559Q32.8613-50.1953 33.1787-50.5127Q33.4961-50.8301 33.9844-50.8301L43.8965-50.8301Q44.7754-50.8301 45.6299-50.8301Q46.4844-50.8301 47.3633-50.8301L54.1016-50.8301Q55.2246-50.8301 55.2246-49.8047Q55.2246-49.3652 54.9316-49.0723Q54.6387-48.7793 54.1016-48.7793L48.1934-48.7793Q49.6582-47.6074 50.3418-46.0449Q51.0254-44.4824 51.123-42.627L54.248-42.627Q55.3711-42.627 55.3711-41.6504Q55.3711-41.2109 55.0781-40.8936Q54.7852-40.5762 54.248-40.5762L51.123-40.5762Q50.7812-36.7676 47.8271-34.8145Q44.873-32.8613 39.1113-32.8613L36.4258-32.8613L50.4395-19.873Q50.6836-19.6777 50.8057-19.4336Q50.9277-19.1895 50.9277-18.9453Q50.9277-18.5547 50.6104-18.2129Q50.293-17.8711 49.9023-17.8711Z"/>
  </g>
 </g>
</svg>
